<svg width="77" height="44" viewBox="0 0 77 44" fill="none" xmlns="http://www.w3.org/2000/svg">
<path d="M54.7723 1.00397H21.5853C10.2185 1.00397 1.00391 10.2186 1.00391 21.5853C1.00391 32.9521 10.2185 42.1667 21.5853 42.1667H54.7723C66.1391 42.1667 75.3537 32.9521 75.3537 21.5853C75.3537 10.2185 66.1391 1.00397 54.7723 1.00397Z" stroke="black" stroke-width="2.00794"/>
<path d="M9.5788 21.8799C9.13869 21.4398 9.13869 20.7262 9.5788 20.2861L16.7507 13.1143C17.1908 12.6742 17.9043 12.6742 18.3444 13.1143C18.7845 13.5544 18.7845 14.2679 18.3444 14.708L11.9694 21.083L18.3444 27.458C18.7845 27.8981 18.7845 28.6117 18.3444 29.0518C17.9043 29.4919 17.1908 29.4919 16.7507 29.0518L9.5788 21.8799ZM66.5979 22.21H10.3757V19.9561H66.5979V22.21Z" fill="black"/>
</svg>
