<svg width="73" height="42" viewBox="0 0 73 42" fill="none" xmlns="http://www.w3.org/2000/svg">
<path d="M20.535 1.00397H52.1073C62.894 1.00397 71.6384 9.74832 71.6384 20.535C71.6384 31.3217 62.894 40.0661 52.1073 40.0661H20.535C9.74833 40.0661 1.00397 31.3217 1.00397 20.535C1.00397 9.74832 9.74832 1.00397 20.535 1.00397Z" stroke="black" stroke-width="2.00794"/>
<path d="M63.5684 20.854C64.0085 20.4139 64.0085 19.7004 63.5684 19.2603L56.3965 12.0884C55.9564 11.6483 55.2428 11.6483 54.8027 12.0884C54.3626 12.5285 54.3626 13.242 54.8027 13.6821L61.1777 20.0571L54.8027 26.4321C54.3626 26.8722 54.3626 27.5858 54.8027 28.0259C55.2428 28.466 55.9564 28.466 56.3965 28.0259L63.5684 20.854ZM9.28491 21.1841H62.7715V18.9302H9.28491V21.1841Z" fill="black"/>
</svg>
