<svg width="147" height="43" viewBox="0 0 147 43" fill="none" xmlns="http://www.w3.org/2000/svg">
<path d="M22.0055 2.10645H125.894C136.722 2.10645 145.5 10.8844 145.5 21.7125C145.5 32.5406 136.722 41.3186 125.894 41.3186H22.0055C11.1773 41.3186 2.39941 32.5406 2.39941 21.7125C2.39941 10.8844 11.1773 2.10645 22.0055 2.10645Z" stroke="white" stroke-width="3"/>
<path d="M29.7655 29V16.49H35.3395C36.6174 16.49 37.6179 16.7927 38.3409 17.398C39.0808 18.0033 39.4507 18.76 39.4507 19.6679C39.4507 20.929 38.8033 21.837 37.5086 22.3919C38.2821 22.6777 38.8706 23.0477 39.2741 23.5017C39.6945 23.9556 39.9047 24.5862 39.9047 25.3933C39.9047 26.4526 39.5011 27.3185 38.694 27.9911C37.8869 28.6637 36.8192 29 35.4909 29H29.7655ZM32.2877 18.5077V21.4839H35.2134C36.4409 21.4839 37.0546 20.9879 37.0546 19.9958C37.0546 19.0038 36.4409 18.5077 35.2134 18.5077H32.2877ZM32.2877 23.5017V26.9318H35.39C36.7183 26.9318 37.3825 26.3601 37.3825 25.2167C37.3825 24.0733 36.7183 23.5017 35.39 23.5017H32.2877ZM53.5431 29V16.49H56.1158V29H53.5431ZM41.3863 16.49H43.858V21.4839H47.1116C48.4736 21.4839 49.5413 21.8202 50.3148 22.4928C51.0882 23.1486 51.475 24.0565 51.475 25.2167C51.475 26.3938 51.0798 27.3185 50.2895 27.9911C49.4993 28.6637 48.4399 29 47.1116 29H41.3863V16.49ZM43.858 23.5017V26.9318H47.0107C48.3391 26.9318 49.0032 26.3601 49.0032 25.2167C49.0032 24.0733 48.3391 23.5017 47.0107 23.5017H43.858ZM67.7842 10.916L68.5408 12.8329C67.801 13.3205 66.9014 13.5643 65.8421 13.5643C62.5633 13.5643 60.7221 15.4475 60.3185 19.214C60.7725 18.4573 61.3863 17.8604 62.1597 17.4232C62.9332 16.9692 63.7907 16.7422 64.7323 16.7422C66.3802 16.7422 67.7505 17.3223 68.8435 18.4825C69.9532 19.6259 70.5081 21.1224 70.5081 22.972C70.5081 24.8384 69.9112 26.3685 68.7174 27.5624C67.5404 28.7562 66.0607 29.3531 64.2783 29.3531C62.227 29.3531 60.6212 28.5965 59.461 27.0831C58.3176 25.553 57.7459 23.4932 57.7459 20.9038C57.7459 18.8524 58.1495 16.9944 58.9566 15.3298C59.6291 13.9678 60.5623 12.9674 61.7562 12.3284C62.9668 11.6727 64.2868 11.3448 65.716 11.3448C66.4895 11.3448 67.1789 11.2018 67.7842 10.916ZM66.9519 20.1724C66.2288 19.3989 65.3377 19.0122 64.2783 19.0122C63.219 19.0122 62.3279 19.3989 61.6048 20.1724C60.8818 20.929 60.5203 21.8875 60.5203 23.0477C60.5203 24.2079 60.8818 25.1747 61.6048 25.9482C62.3279 26.7048 63.219 27.0831 64.2783 27.0831C65.3377 27.0831 66.2288 26.7048 66.9519 25.9482C67.6917 25.1747 68.0616 24.2079 68.0616 23.0477C68.0616 21.8875 67.6917 20.929 66.9519 20.1724ZM71.8937 34.1452V16.49H74.4664V18.4069C74.8699 17.7679 75.4752 17.2298 76.2823 16.7927C77.0894 16.3555 77.9638 16.1369 78.9054 16.1369C80.5364 16.1369 81.9068 16.7422 83.0165 17.9529C84.1263 19.1467 84.6812 20.7441 84.6812 22.745C84.6812 24.7291 84.1095 26.3265 82.9661 27.5371C81.8227 28.7478 80.3935 29.3531 78.6784 29.3531C77.7704 29.3531 76.9381 29.1681 76.1814 28.7982C75.4416 28.4283 74.8699 27.9239 74.4664 27.2849V34.1452H71.8937ZM80.9231 19.6932C80.1833 18.9029 79.2669 18.5077 78.174 18.5077C77.081 18.5077 76.1562 18.9029 75.3996 19.6932C74.6597 20.4835 74.2898 21.5007 74.2898 22.745C74.2898 23.9893 74.6597 25.0066 75.3996 25.7968C76.1562 26.5871 77.081 26.9823 78.174 26.9823C79.2669 26.9823 80.1833 26.5871 80.9231 25.7968C81.6798 25.0066 82.0581 23.9893 82.0581 22.745C82.0581 21.5007 81.6798 20.4835 80.9231 19.6932ZM97.1994 29H94.6268C94.2233 28.4956 93.9879 27.7641 93.9206 26.8057C93.1135 28.504 91.7263 29.3531 89.759 29.3531C88.4979 29.3531 87.4723 29 86.682 28.2938C85.8917 27.5708 85.4965 26.6376 85.4965 25.4942C85.4965 24.3003 85.9001 23.3755 86.7072 22.7198C87.5143 22.0472 88.582 21.6016 89.9104 21.383L93.8702 20.7525V20.2228C93.8702 18.7768 92.9958 18.0538 91.2471 18.0538C90.3896 18.0538 89.7422 18.2135 89.305 18.533C88.8679 18.8356 88.6493 19.2224 88.6493 19.6932C88.6493 19.8613 88.6661 19.9874 88.6997 20.0715L86.4045 20.8534C86.27 20.5003 86.2028 20.164 86.2028 19.8445C86.2028 18.8356 86.6652 17.9697 87.59 17.2467C88.5148 16.5068 89.7338 16.1369 91.2471 16.1369C92.9454 16.1369 94.2317 16.4984 95.106 17.2214C95.9972 17.9445 96.4428 18.9954 96.4428 20.3742V25.8725C96.4428 27.1504 96.695 28.1929 97.1994 29ZM90.1626 27.2093C91.2723 27.2093 92.1635 26.8141 92.8361 26.0238C93.5255 25.2336 93.8702 24.2247 93.8702 22.9972V22.6441L90.4905 23.2242C88.8763 23.5101 88.0692 24.2163 88.0692 25.3428C88.0692 25.9145 88.2541 26.3685 88.624 26.7048C89.0108 27.0411 89.5236 27.2093 90.1626 27.2093ZM96.9589 18.7095V16.49H106.795V18.7095H103.163V29H100.591V18.7095H96.9589ZM108.061 16.49H110.533V21.4839H113.787C115.149 21.4839 116.216 21.8202 116.99 22.4928C117.763 23.1486 118.15 24.0565 118.15 25.2167C118.15 26.3938 117.755 27.3185 116.965 27.9911C116.174 28.6637 115.115 29 113.787 29H108.061V16.49ZM110.533 23.5017V26.9318H113.686C115.014 26.9318 115.678 26.3601 115.678 25.2167C115.678 24.0733 115.014 23.5017 113.686 23.5017H110.533Z" fill="white"/>
</svg>
