<svg width="269" height="52" viewBox="0 0 269 52" fill="none" xmlns="http://www.w3.org/2000/svg">
<path d="M1.53323 25.7203C1.53323 12.189 12.5025 1.21975 26.0338 1.21975H242.891C256.422 1.21975 267.392 12.189 267.392 25.7203C267.392 39.2516 256.422 50.2209 242.891 50.2209H26.0338C12.5025 50.2209 1.53323 39.2516 1.53323 25.7203Z" fill="#1C0000" stroke="black" stroke-width="2.20122"/>
<path d="M84.4353 26.3174C84.4353 28.5847 83.698 30.3635 82.2233 31.6538C80.7671 32.9257 79.062 33.5617 77.1081 33.5617C75.1542 33.5617 73.4399 32.9257 71.9653 31.6538C70.5091 30.3635 69.781 28.5847 69.781 26.3174C69.781 24.087 70.5091 22.3267 71.9653 21.0364C73.4399 19.7276 75.1542 19.0732 77.1081 19.0732C79.062 19.0732 80.7671 19.7276 82.2233 21.0364C83.698 22.3267 84.4353 24.087 84.4353 26.3174ZM73.9561 29.6631C74.8224 30.5294 75.8731 30.9626 77.1081 30.9626C78.3431 30.9626 79.3938 30.5294 80.2602 29.6631C81.1265 28.7967 81.5597 27.6815 81.5597 26.3174C81.5597 24.9534 81.1265 23.8382 80.2602 22.9718C79.3938 22.1055 78.3431 21.6723 77.1081 21.6723C75.8731 21.6723 74.8224 22.1055 73.9561 22.9718C73.0897 23.8382 72.6565 24.9534 72.6565 26.3174C72.6565 27.6815 73.0897 28.7967 73.9561 29.6631ZM84.1346 21.8935V19.4603H94.918V21.8935H90.9364V33.1746H88.1161V21.8935H84.1346ZM107.863 19.4603V33.1746H105.043V21.9488H99.1261V33.1746H96.3058V19.4603H107.863ZM110.233 38.8151V19.4603H113.054V21.5617C113.496 20.8613 114.16 20.2714 115.044 19.7921C115.929 19.3129 116.888 19.0732 117.92 19.0732C119.708 19.0732 121.21 19.7368 122.427 21.064C123.643 22.3728 124.252 24.1239 124.252 26.3174C124.252 28.4926 123.625 30.2437 122.371 31.5709C121.118 32.8981 119.551 33.5617 117.671 33.5617C116.676 33.5617 115.763 33.3589 114.934 32.9534C114.123 32.5478 113.496 31.9948 113.054 31.2944V38.8151H110.233ZM120.132 22.9718C119.321 22.1055 118.316 21.6723 117.118 21.6723C115.92 21.6723 114.906 22.1055 114.077 22.9718C113.266 23.8382 112.86 24.9534 112.86 26.3174C112.86 27.6815 113.266 28.7967 114.077 29.6631C114.906 30.5294 115.92 30.9626 117.118 30.9626C118.316 30.9626 119.321 30.5294 120.132 29.6631C120.961 28.7967 121.376 27.6815 121.376 26.3174C121.376 24.9534 120.961 23.8382 120.132 22.9718ZM137.975 33.1746H135.155C134.712 32.6216 134.454 31.8197 134.38 30.769C133.496 32.6308 131.975 33.5617 129.818 33.5617C128.436 33.5617 127.311 33.1746 126.445 32.4004C125.579 31.6077 125.146 30.5847 125.146 29.3313C125.146 28.0225 125.588 27.0087 126.473 26.2898C127.357 25.5525 128.528 25.064 129.984 24.8244L134.325 24.1331V23.5525C134.325 21.9672 133.367 21.1746 131.45 21.1746C130.51 21.1746 129.8 21.3497 129.321 21.7C128.841 22.0318 128.602 22.4557 128.602 22.9718C128.602 23.1562 128.62 23.2944 128.657 23.3866L126.141 24.2437C125.993 23.8566 125.92 23.488 125.92 23.1377C125.92 22.0318 126.427 21.0824 127.44 20.2898C128.454 19.4788 129.791 19.0732 131.45 19.0732C133.311 19.0732 134.721 19.4696 135.68 20.2622C136.657 21.0548 137.145 22.2069 137.145 23.7184V29.746C137.145 31.1469 137.422 32.2898 137.975 33.1746ZM130.261 31.2114C131.477 31.2114 132.454 30.7783 133.192 29.9119C133.947 29.0455 134.325 27.9396 134.325 26.5939V26.2068L130.62 26.8428C128.851 27.1562 127.966 27.9303 127.966 29.1654C127.966 29.7921 128.169 30.2898 128.574 30.6584C128.998 31.0271 129.56 31.2114 130.261 31.2114ZM139.303 33.1746V19.4603H145.414C146.815 19.4603 147.911 19.7921 148.704 20.4557C149.515 21.1193 149.921 21.9488 149.921 22.9442C149.921 24.3267 149.211 25.3221 147.792 25.9304C148.64 26.2437 149.285 26.6492 149.727 27.1469C150.188 27.6446 150.418 28.3359 150.418 29.2207C150.418 30.3819 149.976 31.3313 149.091 32.0686C148.206 32.8059 147.036 33.1746 145.58 33.1746H139.303ZM142.068 21.6723V24.935H145.276C146.621 24.935 147.294 24.3912 147.294 23.3036C147.294 22.2161 146.621 21.6723 145.276 21.6723H142.068ZM142.068 27.1469V30.9073H145.469C146.925 30.9073 147.653 30.2806 147.653 29.0271C147.653 27.7737 146.925 27.1469 145.469 27.1469H142.068ZM154.752 19.4603V29.3866L160.946 19.4603H163.932V33.1746H161.222V23.2483L155.029 33.1746H152.043V19.4603H154.752ZM165.107 21.8935V19.4603H175.89V21.8935H171.909V33.1746H169.089V21.8935H165.107ZM177.278 19.4603H179.988V24.935H183.555C185.048 24.935 186.218 25.3036 187.066 26.041C187.914 26.7598 188.338 27.7552 188.338 29.0271C188.338 30.3174 187.905 31.3313 187.039 32.0686C186.172 32.8059 185.011 33.1746 183.555 33.1746H177.278V19.4603ZM179.988 27.1469V30.9073H183.444C184.9 30.9073 185.628 30.2806 185.628 29.0271C185.628 27.7737 184.9 27.1469 183.444 27.1469H179.988Z" fill="white"/>
</svg>
